<?xml version="1.0" encoding="UTF-8"?>
<!DOCTYPE svg PUBLIC "-//W3C//DTD SVG 1.1//EN" "http://www.w3.org/Graphics/SVG/1.1/DTD/svg11.dtd">
<svg xmlns="http://www.w3.org/2000/svg" version="1.1" width="19px" height="15px" style="shape-rendering:geometricPrecision; text-rendering:geometricPrecision; image-rendering:optimizeQuality; fill-rule:evenodd; clip-rule:evenodd" xmlns:xlink="http://www.w3.org/1999/xlink">
<g><path style="opacity:0.78" fill="#fefffe" d="M 9.5,-0.5 C 10.8333,-0.5 12.1667,-0.5 13.5,-0.5C 15.177,1.53982 16.8437,3.53982 18.5,5.5C 18.5,6.5 18.5,7.5 18.5,8.5C 16.1097,9.89084 14.4431,11.8908 13.5,14.5C 12.1667,14.5 10.8333,14.5 9.5,14.5C 9.39297,12.0968 10.393,10.2635 12.5,9C 8.17944,8.50098 3.84611,8.33432 -0.5,8.5C -0.5,7.5 -0.5,6.5 -0.5,5.5C 3.84611,5.66568 8.17944,5.49902 12.5,5C 10.393,3.73649 9.39297,1.90315 9.5,-0.5 Z"/></g>
</svg>
