<svg width="255" height="52" viewBox="0 0 255 52" fill="none" xmlns="http://www.w3.org/2000/svg">
<path d="M69.6796 12.6904V16.677H60.1126V21.8688H68.6864V25.8227H60.1126V31.8544H69.6796V35.8082H55.4956V12.6904H69.6796Z" fill="white"/>
<path d="M74.9839 19.0548H79.107V20.4619C79.7351 19.622 81.0505 18.7549 82.8973 18.7549C86.2312 18.7549 88.9316 20.3637 88.9316 25.321V35.8083H84.7441V25.9918C84.7441 23.3795 83.8207 22.4415 82.1027 22.4415C80.1593 22.4415 79.1983 23.7504 79.1983 25.9591V35.8083H74.9785V19.0548H74.9839Z" fill="white"/>
<path d="M101.854 12.6904C107.228 12.6904 110.165 14.6319 110.165 18.7548C110.165 21.1326 108.978 22.7741 107.164 23.6794C109.504 24.552 110.889 26.2917 110.889 29.1766C110.889 32.7596 108.581 35.8082 102.579 35.8082H94.2358V12.6904H101.854ZM98.8529 21.8361H101.918C104.458 21.8361 105.548 20.8326 105.548 19.1911C105.548 17.5496 104.758 16.6443 101.424 16.6443H98.8529V21.8361ZM98.8529 31.8544H102.181C104.952 31.8544 106.272 30.78 106.272 28.8058C106.272 26.6298 104.855 25.79 101.752 25.79H98.8475V31.8544H98.8529Z" fill="white"/>
<path d="M115.249 12.6904H119.802V16.8461H115.249V12.6904ZM115.415 19.0548H119.635V35.8082H115.415V19.0548Z" fill="white"/>
<path d="M139.708 28.4029C139.708 32.9948 137.566 36.1088 132.584 36.1088C127.602 36.1088 125.46 33.0929 125.46 28.4029V26.3905C125.46 21.3623 128.064 18.75 132.584 18.75C137.105 18.75 139.708 21.3623 139.708 26.3905V28.4029ZM135.521 28.272V26.5268C135.521 23.8437 134.662 22.3712 132.584 22.3712C130.506 22.3712 129.648 23.8437 129.648 26.5268V28.272C129.648 30.6825 130.243 32.4931 132.584 32.4931C134.925 32.4931 135.521 30.6825 135.521 28.272Z" fill="white"/>
<path d="M168.522 12.6904V35.8082H164.662L155.788 21.5034V35.8082H151.401V12.6904H155.229L164.136 27.197V12.6904H168.522Z" fill="white"/>
<path d="M187.64 12.6904V16.677H178.073V21.8688H186.646V25.8227H178.073V31.8544H187.64V35.8082H173.456V12.6904H187.64Z" fill="white"/>
<path d="M201.19 35.8081L197.991 30.7145L194.791 35.8081H190.142L195.553 27.2296L190.571 19.0547H195.22L197.991 23.8484L200.761 19.0547H205.41L200.428 27.2296L205.872 35.8081H201.19Z" fill="white"/>
<path d="M222.01 12.6904V16.677H215.745V35.8082H211.128V16.677H204.862V12.6904H222.015H222.01Z" fill="white"/>
<path d="M235.055 33.2614C233.901 35.3065 231.99 36.1082 229.021 36.1082C224.077 36.1082 221.698 32.8579 221.698 28.5386V26.259C221.698 21.1981 224.205 18.7549 228.495 18.7549C233.144 18.7549 235.292 21.5035 235.292 26.5971V28.5059H225.891C225.923 30.8182 226.648 32.4925 228.994 32.4925C230.744 32.4925 231.303 31.958 231.931 31.0527L235.066 33.2614H235.055ZM225.886 25.4519H231.067C230.97 23.2759 230.111 22.3706 228.527 22.3706C226.847 22.3706 226.052 23.5431 225.886 25.4519Z" fill="white"/>
<path d="M251.307 18.6837C250.319 17.1076 249.132 16.3386 246.818 16.3386C244.741 16.3386 243.619 17.3094 243.619 18.8854C243.619 20.696 245.068 21.4977 248.107 22.2721C252.858 23.4774 255 25.288 255 29.3727C255 33.1575 252.493 36.1079 247.151 36.1079C243.162 36.1079 240.387 35.0008 238.379 32.3231L241.906 29.8417C243.125 31.3851 244.51 32.154 246.856 32.154C249.497 32.154 250.383 30.9815 250.383 29.5745C250.383 27.9657 249.428 27.0604 245.734 26.0896C241.246 24.8844 239.007 22.703 239.007 18.8854C239.007 15.0679 241.38 12.3848 246.792 12.3848C250.421 12.3848 253.159 13.6227 254.775 16.1696L251.312 18.6837H251.307Z" fill="white"/>
<path d="M41.199 11.8234L21.233 0.114525C20.9753 -0.0381751 20.6532 -0.0381751 20.3901 0.114525L12.1009 4.97913C11.8862 5.10456 11.8969 5.42632 12.1224 5.54085L15.7194 7.30781C15.9717 7.43325 16.267 7.42234 16.5086 7.28055L20.3955 5.00094C20.6586 4.84824 20.9753 4.84824 21.2384 5.00094L37.0168 14.2884C37.2745 14.4411 37.4356 14.7247 37.4356 15.0246L37.4624 33.556C37.4624 33.8614 37.3014 34.1449 37.0437 34.2976L33.6561 36.2827C33.5809 36.3264 33.4843 36.2609 33.5004 36.1737C33.9513 33.8832 34.1339 31.1291 33.6185 28.0805C32.5608 21.8362 29.3558 17.6533 27.7881 16.3935C24.2502 13.5467 11.7305 8.2731 9.14281 7.19329C8.84753 7.06786 8.50931 7.09512 8.23014 7.25873L0.520759 11.7689C0.19864 11.9543 0 12.3033 0 12.6851V35.8792C0 36.2555 0.19864 36.6045 0.51539 36.7954L26.2205 51.9618C26.3708 52.0491 26.5587 52 26.65 51.8473C27.3586 50.6093 28.0619 49.3714 28.7706 48.1334C28.8887 47.9262 28.9316 47.6917 28.8994 47.4572C28.7867 46.6446 28.5988 45.5593 28.2552 44.3159C26.7144 38.7314 23.5415 35.1375 21.3404 32.6997C16.7717 27.6388 11.054 21.4544 4.1607 14.5175C9.71188 17.7733 15.2577 21.0291 20.8089 24.2794C22.3658 25.3265 24.2556 26.8535 26.0111 29.0513C29.9409 33.965 30.9019 39.3149 31.1704 42.1072C31.1918 42.3362 31.4388 42.4617 31.6374 42.3471L41.199 36.7409C41.4621 36.5882 41.6178 36.3046 41.6178 35.9992V12.5651C41.6178 12.2597 41.4567 11.9761 41.199 11.8234Z" fill="white"/>
</svg>
