<svg width="261" height="52" viewBox="0 0 261 52" fill="none" xmlns="http://www.w3.org/2000/svg">
<g clip-path="url(#clip0_2002_87)">
<path d="M71.3195 12.6905V16.6771H61.5274V21.8689H70.3029V25.8228H61.5274V31.8544H71.3195V35.8083H56.8018V12.6905H71.3195Z" fill="#005563"/>
<path d="M76.7487 19.0549H80.9688V20.4619C81.6117 19.622 82.958 18.7549 84.8482 18.7549C88.2606 18.7549 91.0246 20.3637 91.0246 25.321V35.8083H86.7385V25.9918C86.7385 23.3796 85.7934 22.4415 84.035 22.4415C82.0458 22.4415 81.0622 23.7504 81.0622 25.9591V35.8083H76.7432V19.0549H76.7487Z" fill="#005563"/>
<path d="M104.251 12.6905C109.751 12.6905 112.757 14.632 112.757 18.7549C112.757 21.1327 111.542 22.7742 109.685 23.6795C112.081 24.5521 113.499 26.2918 113.499 29.1767C113.499 32.7597 111.136 35.8083 104.992 35.8083H96.4532V12.6905H104.251ZM101.179 21.8362H104.316C106.916 21.8362 108.031 20.8327 108.031 19.1912C108.031 17.5497 107.223 16.6444 103.811 16.6444H101.179V21.8362ZM101.179 31.8544H104.586C107.421 31.8544 108.773 30.7801 108.773 28.8059C108.773 26.6299 107.322 25.79 104.146 25.79H101.173V31.8544H101.179Z" fill="#005563"/>
<path d="M117.961 12.6905H122.621V16.8461H117.961V12.6905ZM118.131 19.0548H122.45V35.8083H118.131V19.0548Z" fill="#005563"/>
<path d="M142.996 28.4023C142.996 32.9942 140.803 36.1082 135.704 36.1082C130.604 36.1082 128.412 33.0924 128.412 28.4023V26.3899C128.412 21.3617 131.077 18.7495 135.704 18.7495C140.33 18.7495 142.996 21.3617 142.996 26.3899V28.4023ZM138.709 28.2714V26.5263C138.709 23.8431 137.83 22.3706 135.704 22.3706C133.577 22.3706 132.698 23.8431 132.698 26.5263V28.2714C132.698 30.6819 133.308 32.4925 135.704 32.4925C138.1 32.4925 138.709 30.6819 138.709 28.2714Z" fill="#005563"/>
<path d="M172.487 12.6905V35.8083H168.536L159.453 21.5035V35.8083H154.964V12.6905H158.882L167.998 27.1971V12.6905H172.487Z" fill="#005563"/>
<path d="M192.055 12.6905V16.6771H182.263V21.8689H191.038V25.8228H182.263V31.8544H192.055V35.8083H177.537V12.6905H192.055Z" fill="#005563"/>
<path d="M205.924 35.8083L202.649 30.7146L199.374 35.8083H194.615L200.154 27.2298L195.055 19.0548H199.814L202.649 23.8486L205.484 19.0548H210.243L205.144 27.2298L210.716 35.8083H205.924Z" fill="#005563"/>
<path d="M227.233 12.6905V16.6771H220.821V35.8083H216.095V16.6771H209.682V12.6905H227.239H227.233Z" fill="#005563"/>
<path d="M240.587 33.2615C239.405 35.3066 237.449 36.1082 234.41 36.1082C229.349 36.1082 226.915 32.8579 226.915 28.5387V26.259C226.915 21.1981 229.481 18.7549 233.872 18.7549C238.63 18.7549 240.828 21.5035 240.828 26.5972V28.5059H231.207C231.24 30.8183 231.981 32.4925 234.383 32.4925C236.174 32.4925 236.746 31.9581 237.388 31.0528L240.598 33.2615H240.587ZM231.201 25.4519H236.504C236.405 23.2759 235.526 22.3706 233.905 22.3706C232.185 22.3706 231.371 23.5432 231.201 25.4519Z" fill="#005563"/>
<path d="M257.219 18.684C256.208 17.1079 254.994 16.339 252.625 16.339C250.499 16.339 249.35 17.3097 249.35 18.8858C249.35 20.6964 250.834 21.4981 253.944 22.2725C258.807 23.4777 261 25.2883 261 29.3731C261 33.1578 258.434 36.1082 252.966 36.1082C248.883 36.1082 246.042 35.0012 243.987 32.3234L247.598 29.8421C248.845 31.3854 250.263 32.1544 252.664 32.1544C255.367 32.1544 256.274 30.9819 256.274 29.5748C256.274 27.966 255.296 27.0607 251.515 26.09C246.922 24.8847 244.63 22.7033 244.63 18.8858C244.63 15.0683 247.059 12.3851 252.598 12.3851C256.313 12.3851 259.115 13.6231 260.769 16.1699L257.225 18.684H257.219Z" fill="#005563"/>
<path d="M42.1684 11.8234L21.7326 0.114525C21.4688 -0.0381751 21.1391 -0.0381751 20.8699 0.114525L12.3857 4.97913C12.1659 5.10456 12.1768 5.42632 12.4076 5.54085L16.0893 7.30781C16.3475 7.43325 16.6498 7.42234 16.897 7.28055L20.8754 5.00094C21.1446 4.84824 21.4688 4.84824 21.7381 5.00094L37.8878 14.2884C38.1516 14.4411 38.3164 14.7247 38.3164 15.0246L38.3439 33.556C38.3439 33.8614 38.179 34.1449 37.9153 34.2976L34.448 36.2827C34.371 36.3264 34.2721 36.2609 34.2886 36.1737C34.7502 33.8832 34.937 31.1291 34.4095 28.0805C33.327 21.8362 30.0465 17.6533 28.442 16.3935C24.8208 13.5467 12.0065 8.2731 9.35793 7.19329C9.05571 7.06786 8.70953 7.09512 8.42379 7.25873L0.533012 11.7689C0.203314 11.9543 0 12.3033 0 12.6851V35.8792C0 36.2555 0.203314 36.6045 0.527517 36.7954L26.8374 51.9618C26.9913 52.0491 27.1836 52 27.277 51.8473C28.0024 50.6093 28.7222 49.3714 29.4475 48.1334C29.5684 47.9262 29.6124 47.6917 29.5794 47.4572C29.464 46.6446 29.2717 45.5593 28.92 44.3159C27.343 38.7314 24.0954 35.1375 21.8425 32.6997C17.1663 27.6388 11.3141 21.4544 4.2586 14.5175C9.9404 17.7733 15.6167 21.0291 21.2985 24.2794C22.892 25.3265 24.8263 26.8535 26.6231 29.0513C30.6454 33.965 31.629 39.3149 31.9038 42.1072C31.9258 42.3362 32.1785 42.4617 32.3818 42.3471L42.1684 36.7409C42.4376 36.5882 42.597 36.3046 42.597 35.9992V12.5651C42.597 12.2597 42.4321 11.9761 42.1684 11.8234Z" fill="#00A9AC"/>
</g>
<defs>
<clipPath id="clip0_2002_87">
<rect width="261" height="52" fill="white"/>
</clipPath>
</defs>
</svg>
